<?xml version="1.0" encoding="UTF-8" standalone="no"?>
<!DOCTYPE svg PUBLIC "-//W3C//DTD SVG 20010904//EN"
              "http://www.w3.org/TR/2001/REC-SVG-20010904/DTD/svg10.dtd">

<svg xmlns="http://www.w3.org/2000/svg"
     width="2.33333in" height="2.18889in"
     viewBox="0 0 210 197">
  <path id="text"
        fill="#1ab394" stroke="none" stroke-width="0"
        d="M 24.95,183.00
           C 24.95,183.00 34.05,183.00 34.05,183.00
             34.05,183.00 45.00,154.00 45.00,154.00
             45.00,154.00 37.33,154.00 37.33,154.00
             37.33,154.00 29.52,175.41 29.52,175.41
             29.52,175.41 21.67,154.00 21.67,154.00
             21.67,154.00 14.00,154.00 14.00,154.00
             14.00,154.00 24.95,183.00 24.95,183.00 Z
           M 63.72,166.67
           C 64.57,167.79 65.00,169.40 65.00,171.50
             65.00,173.61 64.57,175.21 63.72,176.33
             62.86,177.45 61.63,178.00 60.03,178.00
             58.39,178.00 57.14,177.45 56.28,176.33
             55.43,175.21 55.00,173.61 55.00,171.50
             55.00,169.40 55.43,167.79 56.28,166.67
             57.14,165.56 58.39,165.00 60.03,165.00
             61.63,165.00 62.86,165.56 63.72,166.67 Z
           M 51.19,163.06
           C 49.06,165.09 48.00,167.91 48.00,171.50
             48.00,175.09 49.06,177.91 51.19,179.95
             53.31,181.98 56.26,183.00 60.03,183.00
             63.78,183.00 66.71,181.98 68.83,179.95
             70.94,177.91 72.00,175.09 72.00,171.50
             72.00,167.91 70.94,165.09 68.83,163.06
             66.71,161.02 63.78,160.00 60.03,160.00
             56.26,160.00 53.31,161.02 51.19,163.06 Z
           M 78.00,155.00
           C 78.00,155.00 78.00,161.00 78.00,161.00
             78.00,161.00 75.00,161.00 75.00,161.00
             75.00,161.00 75.00,166.00 75.00,166.00
             75.00,166.00 78.00,166.00 78.00,166.00
             78.00,166.00 78.00,175.38 78.00,175.38
             78.00,178.15 78.58,180.11 79.73,181.27
             80.90,182.42 82.87,183.00 85.64,183.00
             85.64,183.00 92.00,183.00 92.00,183.00
             92.00,183.00 92.00,178.00 92.00,178.00
             92.00,178.00 88.19,178.00 88.19,178.00
             86.91,178.00 86.07,177.82 85.64,177.47
             85.21,177.11 85.00,176.41 85.00,175.38
             85.00,175.38 85.00,166.00 85.00,166.00
             85.00,166.00 92.00,166.00 92.00,166.00
             92.00,166.00 92.00,161.00 92.00,161.00
             92.00,161.00 85.00,161.00 85.00,161.00
             85.00,161.00 85.00,155.00 85.00,155.00
             85.00,155.00 78.00,155.00 78.00,155.00 Z
           M 101.98,183.00
           C 101.98,183.00 110.72,183.00 110.72,183.00
             110.72,183.00 116.00,160.95 116.00,160.95
             116.00,160.95 121.33,183.00 121.33,183.00
             121.33,183.00 130.08,183.00 130.08,183.00
             130.08,183.00 137.00,154.00 137.00,154.00
             137.00,154.00 129.80,154.00 129.80,154.00
             129.80,154.00 124.72,175.08 124.72,175.08
             124.72,175.08 119.69,154.00 119.69,154.00
             119.69,154.00 112.38,154.00 112.38,154.00
             112.38,154.00 107.34,175.08 107.34,175.08
             107.34,175.08 102.27,154.00 102.27,154.00
             102.27,154.00 95.00,154.00 95.00,154.00
             95.00,154.00 101.98,183.00 101.98,183.00 Z
           M 143.00,183.00
           C 143.00,183.00 164.00,183.00 164.00,183.00
             164.00,183.00 164.00,178.00 164.00,178.00
             164.00,178.00 151.00,178.00 151.00,178.00
             151.00,178.00 151.00,171.00 151.00,171.00
             151.00,171.00 163.00,171.00 163.00,171.00
             163.00,171.00 163.00,166.00 163.00,166.00
             163.00,166.00 151.00,166.00 151.00,166.00
             151.00,166.00 151.00,159.00 151.00,159.00
             151.00,159.00 164.00,159.00 164.00,159.00
             164.00,159.00 164.00,154.00 164.00,154.00
             164.00,154.00 143.00,154.00 143.00,154.00
             143.00,154.00 143.00,183.00 143.00,183.00 Z
           M 179.00,166.00
           C 179.00,166.00 179.00,159.00 179.00,159.00
             179.00,159.00 182.75,159.00 182.75,159.00
             183.81,159.00 184.62,159.30 185.17,159.91
             185.72,160.50 186.00,161.37 186.00,162.50
             186.00,163.66 185.72,164.53 185.17,165.12
             184.62,165.71 183.81,166.00 182.75,166.00
             182.75,166.00 179.00,166.00 179.00,166.00 Z
           M 179.00,178.00
           C 179.00,178.00 179.00,171.00 179.00,171.00
             179.00,171.00 182.97,171.00 182.97,171.00
             184.32,171.00 185.33,171.29 186.00,171.88
             186.66,172.45 187.00,173.31 187.00,174.47
             187.00,175.66 186.66,176.54 185.98,177.12
             185.30,177.71 184.30,178.00 182.97,178.00
             182.97,178.00 179.00,178.00 179.00,178.00 Z
           M 192.89,165.89
           C 193.63,164.85 194.00,163.59 194.00,162.09
             194.00,159.27 193.08,157.22 191.25,155.94
             189.43,154.65 186.47,154.00 182.39,154.00
             182.39,154.00 171.00,154.00 171.00,154.00
             171.00,154.00 171.00,183.00 171.00,183.00
             171.00,183.00 183.47,183.00 183.47,183.00
             187.35,183.00 190.24,182.35 192.14,181.05
             194.05,179.73 195.00,177.75 195.00,175.08
             195.00,173.34 194.54,171.88 193.61,170.69
             192.69,169.49 191.39,168.67 189.70,168.22
             191.10,167.71 192.16,166.93 192.89,165.89 Z" />
  <path id="logo"
        fill="#1ab394" stroke="none" stroke-width="0"
        d="M 166.25,75.50
           C 158.85,79.00 150.89,86.62 150.73,95.17
             150.73,95.17 150.73,128.29 150.73,128.29
             150.73,128.29 51.37,128.29 51.37,128.29
             51.37,128.29 51.37,38.24 51.37,38.24
             51.37,35.97 50.98,32.91 52.25,31.00
             51.45,28.22 64.84,28.97 70.25,28.75
             70.25,28.75 90.75,28.75 90.75,28.75
             90.75,28.75 130.45,28.55 130.45,28.55
             132.62,28.55 136.30,29.05 138.31,28.30
             143.14,26.52 150.61,18.03 152.80,13.40
             152.80,13.40 55.51,13.40 55.51,13.40
             39.56,13.42 35.86,21.51 35.84,36.17
             35.84,36.17 35.84,123.11 35.84,123.11
             35.86,138.65 43.83,143.79 58.61,143.81
             58.61,143.81 146.59,143.81 146.59,143.81
             154.41,143.80 160.16,143.34 164.18,135.52
             167.07,129.90 166.25,121.17 166.25,114.83
             166.25,114.83 166.25,75.50 166.25,75.50 Z
           M 116.57,81.71
           C 111.74,79.19 108.95,74.21 105.17,70.33
             97.17,62.12 85.31,49.43 75.17,44.45
             73.62,49.11 70.61,58.44 70.06,63.08
             69.32,69.35 77.25,74.48 81.38,78.61
             92.80,90.01 103.25,102.35 113.47,114.83
             113.47,114.83 141.70,82.75 141.70,82.75
             157.87,64.37 177.38,44.11 197.30,29.96
             192.69,26.67 181.39,23.59 175.57,21.68
             172.54,20.69 169.44,19.41 166.25,20.40
             161.06,22.00 154.35,33.83 150.75,38.00
             150.75,38.00 131.25,65.00 131.25,65.00
             122.25,77.75 120.50,79.50 116.57,81.71 Z" />
</svg>
