<?xml version="1.0" encoding="UTF-8" standalone="no"?>
<!DOCTYPE svg PUBLIC "-//W3C//DTD SVG 20010904//EN"
              "http://www.w3.org/TR/2001/REC-SVG-20010904/DTD/svg10.dtd">

<svg xmlns="http://www.w3.org/2000/svg"
     width="2.3in" height="2.3in"
     viewBox="0 0 207 207">
  <path id="logo"
        fill="#1ab394" stroke="none" stroke-width="0"
        d="M 155.25,103.50
           C 147.85,107.00 139.89,114.62 139.73,123.17
             139.73,123.17 139.73,156.29 139.73,156.29
             139.73,156.29 40.37,156.29 40.37,156.29
             40.37,156.29 40.37,66.24 40.37,66.24
             40.37,63.97 39.98,60.91 41.25,59.00
             40.45,56.22 53.84,56.97 59.25,56.75
             59.25,56.75 79.75,56.75 79.75,56.75
             79.75,56.75 119.45,56.55 119.45,56.55
             121.62,56.55 125.30,57.05 127.31,56.30
             132.14,54.52 139.61,46.03 141.80,41.40
             141.80,41.40 44.51,41.40 44.51,41.40
             28.56,41.42 24.86,49.51 24.84,64.17
             24.84,64.17 24.84,151.11 24.84,151.11
             24.86,166.65 32.83,171.79 47.61,171.81
             47.61,171.81 135.59,171.81 135.59,171.81
             143.41,171.80 149.16,171.34 153.18,163.52
             156.07,157.90 155.25,149.17 155.25,142.83
             155.25,142.83 155.25,103.50 155.25,103.50 Z
           M 105.57,109.71
           C 100.74,107.19 97.95,102.21 94.17,98.33
             86.17,90.12 74.31,77.43 64.17,72.45
             62.62,77.11 59.61,86.44 59.06,91.08
             58.32,97.35 66.25,102.48 70.38,106.61
             81.80,118.01 92.25,130.35 102.47,142.83
             102.47,142.83 130.70,110.75 130.70,110.75
             146.87,92.37 166.38,72.11 186.30,57.96
             181.69,54.67 170.39,51.59 164.57,49.68
             161.54,48.69 158.44,47.41 155.25,48.40
             150.06,50.00 143.35,61.83 139.75,66.00
             139.75,66.00 120.25,93.00 120.25,93.00
             111.25,105.75 109.50,107.50 105.57,109.71 Z" />
</svg>
